<svg xmlns="http://www.w3.org/2000/svg" xmlns:xlink="http://www.w3.org/1999/xlink" viewBox="0 0 72 72"><defs><style>.cls-1{fill:url(#linear-gradient);}.cls-2{fill:url(#linear-gradient-2);}</style><linearGradient id="linear-gradient" x1="90.31" y1="64.55" x2="52.82" y2="21.49" gradientUnits="userSpaceOnUse"><stop offset="0" stop-color="#4338ca"/><stop offset="0.12" stop-color="#5551d7"/><stop offset="0.36" stop-color="#757bef"/><stop offset="0.48" stop-color="#818cf8"/><stop offset="0.6" stop-color="#7e88f6"/><stop offset="0.71" stop-color="#767df0"/><stop offset="0.82" stop-color="#696be6"/><stop offset="0.92" stop-color="#5551d8"/><stop offset="1" stop-color="#4338ca"/></linearGradient><linearGradient id="linear-gradient-2" x1="1.83" y1="3.84" x2="63.4" y2="57.34" gradientUnits="userSpaceOnUse"><stop offset="0" stop-color="#6366f1"/><stop offset="0.1" stop-color="#676bf2"/><stop offset="0.23" stop-color="#737af5"/><stop offset="0.33" stop-color="#818cf8"/><stop offset="0.53" stop-color="#767ff6"/><stop offset="0.79" stop-color="#6366f1"/></linearGradient></defs><g id="Layer_2" data-name="Layer 2"><g id="Logo"><path class="cls-1" d="M54,18V63a9,9,0,0,0,9,9h0a9,9,0,0,0,9-9V0Z"/><path class="cls-2" d="M0,2.39V62.86A9.07,9.07,0,0,0,9,72H9a9.07,9.07,0,0,0,9-9.14V35.43L34,51.65a2.33,2.33,0,0,0,3.62-.36L72,0,45,26.29,3.23.17A2.36,2.36,0,0,0,0,2.39Z"/></g></g></svg>